<svg width="15" height="15" viewBox="0 0 15 15" fill="none" xmlns="http://www.w3.org/2000/svg">
<path d="M10 1.25H5C2.93187 1.25 1.25 2.93187 1.25 5V13.125C1.25 13.2908 1.31585 13.4497 1.43306 13.5669C1.55027 13.6842 1.70924 13.75 1.875 13.75H10C12.0681 13.75 13.75 12.0681 13.75 10V5C13.75 2.93187 12.0681 1.25 10 1.25ZM12.5 10C12.5 11.3788 11.3788 12.5 10 12.5H2.5V5C2.5 3.62125 3.62125 2.5 5 2.5H10C11.3788 2.5 12.5 3.62125 12.5 5V10Z" fill="#33A89C"/>
<path d="M8.125 4.375H6.875V6.875H4.375V8.125H6.875V10.625H8.125V8.125H10.625V6.875H8.125V4.375Z" fill="#33A89C"/>
</svg>
