<svg width="36" height="36" viewBox="0 0 36 36" fill="none" xmlns="http://www.w3.org/2000/svg">
<path fill-rule="evenodd" clip-rule="evenodd" d="M35.3575 7.82097C35.3575 9.88859 34.5362 11.8715 33.0741 13.3335C31.6121 14.7956 29.6292 15.6169 27.5616 15.6169C25.494 15.6169 23.511 14.7956 22.049 13.3335C20.587 11.8715 19.7656 9.88859 19.7656 7.82097C19.7656 5.75336 20.587 3.77043 22.049 2.3084C23.511 0.846381 25.494 0.0250244 27.5616 0.0250244C29.6292 0.0250244 31.6121 0.846381 33.0741 2.3084C34.5362 3.77043 35.3575 5.75336 35.3575 7.82097ZM31.7344 8.78085C31.6763 9.03251 31.5208 9.25083 31.3019 9.38787C31.083 9.52492 30.8186 9.56946 30.5669 9.51172L24.1197 8.03049C23.8677 7.9726 23.649 7.81697 23.5118 7.59785C23.3745 7.37873 23.3299 7.11406 23.3878 6.86207C23.4457 6.61008 23.6013 6.39141 23.8205 6.25416C24.0396 6.11691 24.3042 6.07233 24.5562 6.13023L31.0035 7.61243C31.1282 7.64116 31.246 7.69417 31.3503 7.76844C31.4545 7.8427 31.5431 7.93677 31.6109 8.04527C31.6788 8.15377 31.7246 8.27457 31.7458 8.40078C31.767 8.52699 31.7631 8.65614 31.7344 8.78085Z" fill="white"/>
<path d="M10.779 3.18725C10.1485 1.69433 8.03775 1.54426 7.19091 2.93096L0.560457 13.78C-0.20452 15.0312 0.650111 16.6294 2.14206 16.7356L13.7054 17.5601C15.1964 17.6673 16.282 16.2075 15.7129 14.8607L10.779 3.18725Z" fill="white"/>
<path fill-rule="evenodd" clip-rule="evenodd" d="M28.912 29.6107C30.3176 28.9554 31.4053 27.7686 31.9359 26.3113C32.4664 24.8541 32.3963 23.2457 31.741 21.8401C31.4165 21.1441 30.9581 20.5189 30.392 20.0001C29.8259 19.4812 29.1631 19.079 28.4416 18.8163C26.9843 18.2858 25.376 18.3559 23.9704 19.0112L13.3718 23.9538C12.6759 24.2783 12.0507 24.7366 11.5319 25.3027C11.0131 25.8688 10.611 26.5316 10.3483 27.2531C10.0857 27.9746 9.9677 28.7408 10.0012 29.5079C10.0346 30.275 10.2188 31.028 10.5433 31.7239C10.8678 32.4198 11.3262 33.045 11.8923 33.5638C12.4583 34.0826 13.1211 34.4848 13.8426 34.7474C14.5641 35.0101 15.3303 35.128 16.0974 35.0946C16.8645 35.0611 17.6175 34.8769 18.3134 34.5524L28.912 29.6098V29.6107ZM23.6088 29.9323L28.0886 27.844C29.0151 27.4006 29.7291 26.6096 30.0756 25.6427C30.422 24.6758 30.3729 23.6112 29.9388 22.6804C29.5047 21.7495 28.7207 21.0276 27.7573 20.6716C26.7939 20.3155 25.7289 20.3541 24.7938 20.7789L20.3141 22.8672L23.6079 29.9323H23.6088Z" fill="white"/>
</svg>
