<svg width="14" height="15" viewBox="0 0 14 15" fill="none" xmlns="http://www.w3.org/2000/svg">
<path d="M6.85185 5.1668e-09C7.46677 -4.02568e-05 8.05839 0.235225 8.50536 0.657535C8.95232 1.07984 9.22074 1.65718 9.25556 2.27111L9.25926 2.40741H13.1481C13.2889 2.40745 13.4244 2.46092 13.5273 2.55702C13.6301 2.65311 13.6926 2.78467 13.7022 2.9251C13.7118 3.06553 13.6678 3.20436 13.5789 3.31355C13.4901 3.42274 13.3631 3.49415 13.2237 3.51333L13.1481 3.51852H12.5585L11.6104 13.163C11.5629 13.6438 11.346 14.0921 10.9985 14.4278C10.651 14.7634 10.1955 14.9647 9.71333 14.9956L9.58296 15H4.12074C3.63738 15 3.16977 14.8281 2.80149 14.515C2.4332 14.202 2.18824 13.7682 2.11037 13.2911L2.09333 13.1622L1.14444 3.51852H0.555556C0.421305 3.51851 0.291598 3.46989 0.190422 3.38165C0.089245 3.29341 0.0234432 3.17152 0.00518516 3.03852L0 2.96296C5.66141e-06 2.82871 0.0486242 2.69901 0.136864 2.59783C0.225105 2.49665 0.346997 2.43085 0.48 2.41259L0.555556 2.40741H4.44444C4.44444 1.76892 4.69808 1.15659 5.14956 0.705113C5.60103 0.253637 6.21337 5.1668e-09 6.85185 5.1668e-09ZM11.4422 3.51852H2.26074L3.19926 13.0533C3.22004 13.2661 3.31379 13.4651 3.46461 13.6166C3.61543 13.7681 3.81401 13.8627 4.02667 13.8844L4.12074 13.8889H9.58296C10.0274 13.8889 10.4044 13.5741 10.4904 13.1467L10.5052 13.0533L11.4415 3.51852H11.4422ZM8.14815 5.55556C8.2824 5.55556 8.4121 5.60418 8.51328 5.69242C8.61446 5.78066 8.68026 5.90255 8.69852 6.03556L8.7037 6.11111V11.2963C8.70366 11.4371 8.65019 11.5725 8.55409 11.6754C8.458 11.7783 8.32645 11.8408 8.18601 11.8504C8.04558 11.86 7.90675 11.8159 7.79756 11.7271C7.68837 11.6383 7.61696 11.5113 7.59778 11.3719L7.59259 11.2963V6.11111C7.59259 5.96377 7.65112 5.82246 7.75531 5.71827C7.8595 5.61409 8.00081 5.55556 8.14815 5.55556ZM5.55556 5.55556C5.68981 5.55556 5.81951 5.60418 5.92069 5.69242C6.02187 5.78066 6.08767 5.90255 6.10593 6.03556L6.11111 6.11111V11.2963C6.11107 11.4371 6.0576 11.5725 5.9615 11.6754C5.86541 11.7783 5.73385 11.8408 5.59342 11.8504C5.45299 11.86 5.31415 11.8159 5.20496 11.7271C5.09577 11.6383 5.02437 11.5113 5.00519 11.3719L5 11.2963V6.11111C5 5.96377 5.05853 5.82246 5.16272 5.71827C5.26691 5.61409 5.40821 5.55556 5.55556 5.55556ZM6.85185 1.11111C6.52653 1.11112 6.2131 1.23346 5.97378 1.45384C5.73447 1.67421 5.58677 1.97652 5.56 2.30074L5.55556 2.40741H8.14815C8.14815 2.06361 8.01157 1.73389 7.76847 1.49079C7.52537 1.24768 7.19565 1.11111 6.85185 1.11111Z" fill="#DC861D"/>
</svg>
