<svg width="14" height="13" viewBox="0 0 14 13" fill="none" xmlns="http://www.w3.org/2000/svg">
<path d="M12.5612 2.67648L10.3269 0.442166C10.0353 0.168256 9.65321 0.0110897 9.25326 0.000564904C8.85332 -0.00995984 8.46347 0.126891 8.15786 0.385085L0.81887 7.72407C0.555291 7.98988 0.391174 8.33827 0.354068 8.71076L0.00342727 12.1112C-0.0075576 12.2306 0.0079402 12.351 0.0488158 12.4637C0.0896914 12.5765 0.154938 12.6789 0.239906 12.7635C0.316101 12.8391 0.406465 12.8989 0.505816 12.9395C0.605168 12.98 0.711552 13.0006 0.81887 13H0.89226L4.29266 12.6901C4.66515 12.653 5.01354 12.4889 5.27934 12.2253L12.6183 4.88633C12.9032 4.5854 13.0571 4.18383 13.0464 3.76961C13.0357 3.35539 12.8613 2.9623 12.5612 2.67648V2.67648ZM4.14588 11.0592L1.69955 11.2876L1.91972 8.84123L6.52697 4.29106L8.72867 6.49275L4.14588 11.0592ZM9.78874 5.40006L7.60335 3.21467L9.19347 1.58379L11.4196 3.80994L9.78874 5.40006Z" fill="#3F76ED"/>
</svg>
