<svg width="18" height="16" viewBox="0 0 18 16" fill="none" xmlns="http://www.w3.org/2000/svg">
<path d="M8 16C3.5816 16 0 12.4184 0 8C0 3.5816 3.5816 2.25463e-06 8 2.25463e-06C9.24212 -0.000930914 10.4673 0.28782 11.5783 0.843315C12.6893 1.39881 13.6555 2.20574 14.4 3.2H12.232C11.3082 2.38541 10.1689 1.85469 8.95097 1.67152C7.733 1.48836 6.48805 1.66053 5.36551 2.16737C4.24297 2.67422 3.29052 3.49421 2.62245 4.52895C1.95439 5.56369 1.59909 6.76922 1.5992 8.00089C1.5993 9.23255 1.9548 10.438 2.62303 11.4727C3.29127 12.5073 4.24385 13.3271 5.36648 13.8338C6.48911 14.3404 7.73409 14.5124 8.95202 14.329C10.17 14.1457 11.3091 13.6147 12.2328 12.8H14.4008C13.6562 13.7944 12.6899 14.6014 11.5788 15.1569C10.4676 15.7124 9.24226 16.0011 8 16ZM13.6 11.2V8.8H7.2V7.2H13.6V4.8L17.6 8L13.6 11.2Z" fill="black"/>
</svg>
