<svg width="18" height="17" viewBox="0 0 18 17" fill="none" xmlns="http://www.w3.org/2000/svg">
<path d="M13.8182 4.32752C13.8754 4.34146 13.9348 4.3439 13.993 4.33471C14.0511 4.32551 14.1068 4.30485 14.1569 4.27394C14.207 4.24302 14.2505 4.20247 14.2848 4.15462C14.3191 4.10677 14.3436 4.05259 14.3567 3.99522C14.3699 3.93784 14.3716 3.87842 14.3616 3.8204C14.3517 3.76238 14.3303 3.70692 14.2987 3.65723C14.2671 3.60754 14.226 3.56462 14.1777 3.53096C14.1294 3.49729 14.0749 3.47356 14.0174 3.46113L11.0764 2.78544C11.0187 2.77011 10.9586 2.76654 10.8995 2.77493C10.8405 2.78333 10.7837 2.80352 10.7326 2.83431C10.6816 2.8651 10.6372 2.90585 10.6022 2.95414C10.5672 3.00244 10.5423 3.05728 10.5289 3.11541C10.5155 3.17353 10.514 3.23376 10.5244 3.29249C10.5348 3.35122 10.5569 3.40726 10.5894 3.45727C10.6219 3.50728 10.6641 3.55024 10.7136 3.58359C10.763 3.61694 10.8187 3.64 10.8772 3.65139L13.8182 4.32752Z" fill="black"/>
<path fill-rule="evenodd" clip-rule="evenodd" d="M13.2253 7.55701C14.2274 7.55701 15.1885 7.15892 15.8971 6.45032C16.6057 5.74171 17.0038 4.78063 17.0038 3.77851C17.0038 2.77638 16.6057 1.81531 15.8971 1.1067C15.1885 0.398091 14.2274 0 13.2253 0C12.2231 0 11.2621 0.398091 10.5535 1.1067C9.84485 1.81531 9.44675 2.77638 9.44675 3.77851C9.44675 4.78063 9.84485 5.74171 10.5535 6.45032C11.2621 7.15892 12.2231 7.55701 13.2253 7.55701ZM13.2253 6.61239C13.5974 6.61239 13.9659 6.53909 14.3097 6.39667C14.6536 6.25426 14.966 6.04551 15.2291 5.78236C15.4923 5.51921 15.701 5.20681 15.8434 4.86299C15.9858 4.51916 16.0591 4.15066 16.0591 3.77851C16.0591 3.40636 15.9858 3.03785 15.8434 2.69403C15.701 2.35021 15.4923 2.0378 15.2291 1.77465C14.966 1.5115 14.6536 1.30276 14.3097 1.16034C13.9659 1.01793 13.5974 0.944627 13.2253 0.944627C12.4737 0.944627 11.7529 1.2432 11.2214 1.77465C10.6899 2.30611 10.3914 3.02692 10.3914 3.77851C10.3914 4.5301 10.6899 5.25091 11.2214 5.78236C11.7529 6.31382 12.4737 6.61239 13.2253 6.61239ZM5.09108 1.53266C4.78549 0.809073 3.76246 0.736337 3.35202 1.40844L0.138401 6.6667C-0.232365 7.27315 0.181854 8.04775 0.904966 8.09923L6.50944 8.49881C7.23208 8.55076 7.75823 7.84324 7.4824 7.1905L5.09108 1.53266ZM4.16204 1.89539C4.16048 1.89717 4.15906 1.89907 4.15779 1.90106L0.949836 7.15082L0.950781 7.15177C0.95227 7.1526 0.953857 7.15323 0.955504 7.15366C0.961001 7.15551 0.966718 7.15662 0.972507 7.15696L6.57745 7.55654C6.5869 7.55749 6.59256 7.55654 6.5954 7.55654C6.60057 7.55559 6.60533 7.55313 6.6091 7.54946L4.22108 1.90059L4.21919 1.89587C4.21127 1.89184 4.20256 1.88959 4.19368 1.88925C4.18372 1.8883 4.17368 1.88976 4.1644 1.8935L4.16298 1.89398V1.89445L4.16204 1.89539ZM13.8794 14.3394C14.5607 14.0218 15.0879 13.4466 15.345 12.7403C15.6021 12.034 15.5682 11.2545 15.2505 10.5732C15.0933 10.2359 14.8711 9.93284 14.5967 9.68138C14.3223 9.42991 14.0011 9.23495 13.6514 9.10763C12.9451 8.8505 12.1656 8.88447 11.4843 9.20208L6.34743 11.5977C6.01014 11.7549 5.70713 11.9771 5.45569 12.2514C5.20426 12.5258 5.00933 12.847 4.88203 13.1967C4.75473 13.5464 4.69755 13.9178 4.71377 14.2896C4.72999 14.6614 4.81928 15.0264 4.97654 15.3636C5.13381 15.7009 5.35597 16.004 5.63034 16.2554C5.90471 16.5068 6.22591 16.7018 6.57562 16.8291C6.92532 16.9564 7.29668 17.0135 7.66848 16.9973C8.04028 16.9811 8.40524 16.8918 8.74254 16.7345L13.8794 14.339V14.3394ZM6.74654 12.454C6.51921 12.5572 6.31461 12.7045 6.14457 12.8874C5.97452 13.0702 5.8424 13.2849 5.75584 13.5191C5.66929 13.7533 5.63001 14.0023 5.64029 14.2518C5.65057 14.5013 5.7102 14.7462 5.81572 14.9725C5.92125 15.1988 6.07059 15.4019 6.25509 15.5702C6.4396 15.7384 6.65563 15.8684 6.89068 15.9526C7.12573 16.0368 7.37514 16.0736 7.6245 16.0608C7.87385 16.0481 8.11821 15.986 8.34343 15.8782L10.4528 14.8944L8.85636 11.4701L6.74654 12.4535V12.454ZM11.3091 14.4953L9.71219 11.071L11.8834 10.0584C12.1088 9.94936 12.3536 9.88621 12.6036 9.87263C12.8536 9.85905 13.1038 9.89529 13.3397 9.97926C13.5756 10.0632 13.7924 10.1932 13.9776 10.3617C14.1628 10.5303 14.3126 10.7339 14.4184 10.9608C14.5242 11.1877 14.5839 11.4334 14.5939 11.6836C14.6039 11.9338 14.5641 12.1834 14.4767 12.4181C14.3894 12.6527 14.2563 12.8677 14.0851 13.0504C13.914 13.2332 13.7083 13.3801 13.4798 13.4827L11.3091 14.4953Z" fill="black"/>
</svg>
