<svg width="15" height="18" viewBox="0 0 15 18" fill="none" xmlns="http://www.w3.org/2000/svg">
<path d="M4.55556 13.4444V11.6667V13.4444ZM7.22222 13.4444V9.88889V13.4444ZM9.88889 13.4444V8.11111V13.4444ZM11.6667 17H2.77778C2.30628 17 1.8541 16.8127 1.5207 16.4793C1.1873 16.1459 1 15.6937 1 15.2222V2.77778C1 2.30628 1.1873 1.8541 1.5207 1.5207C1.8541 1.1873 2.30628 1 2.77778 1H7.74311C7.97884 1.00005 8.2049 1.09373 8.37156 1.26044L13.184 6.07289C13.3507 6.23955 13.4444 6.4656 13.4444 6.70133V15.2222C13.4444 15.6937 13.2571 16.1459 12.9237 16.4793C12.5903 16.8127 12.1382 17 11.6667 17Z" stroke="black" stroke-width="2" stroke-linecap="round" stroke-linejoin="round"/>
</svg>
