<svg width="16" height="16" viewBox="0 0 16 16" fill="none" xmlns="http://www.w3.org/2000/svg">
<path d="M16 16H14.8571V13.1429C14.8562 12.3854 14.5549 11.6592 14.0193 11.1236C13.4837 10.5879 12.7575 10.2866 12 10.2857V9.14286C13.0605 9.14407 14.0772 9.56588 14.8271 10.3158C15.577 11.0656 15.9988 12.0824 16 13.1429V16ZM11.4286 16H10.2857V13.1429C10.2848 12.3854 9.9835 11.6592 9.44788 11.1236C8.91225 10.5879 8.18605 10.2866 7.42857 10.2857H4C3.24252 10.2866 2.51632 10.5879 1.9807 11.1236C1.44508 11.6592 1.14376 12.3854 1.14286 13.1429V16H0V13.1429C0.00120992 12.0824 0.423026 11.0656 1.17291 10.3158C1.92279 9.56588 2.93951 9.14407 4 9.14286H7.42857C8.48907 9.14407 9.50578 9.56588 10.2557 10.3158C11.0055 11.0656 11.4274 12.0824 11.4286 13.1429V16ZM10.2857 0V1.14286C11.0435 1.14286 11.7702 1.44388 12.306 1.97969C12.8418 2.51551 13.1429 3.24224 13.1429 4C13.1429 4.75776 12.8418 5.48449 12.306 6.02031C11.7702 6.55612 11.0435 6.85714 10.2857 6.85714V8C11.3466 8 12.364 7.57857 13.1141 6.82843C13.8643 6.07828 14.2857 5.06087 14.2857 4C14.2857 2.93913 13.8643 1.92172 13.1141 1.17157C12.364 0.421427 11.3466 0 10.2857 0ZM5.71429 1.14286C6.27938 1.14286 6.83177 1.31043 7.30163 1.62437C7.77148 1.93832 8.13769 2.38454 8.35394 2.90662C8.57019 3.42869 8.62677 4.00317 8.51653 4.5574C8.40629 5.11163 8.13417 5.62073 7.73459 6.02031C7.33501 6.41988 6.82592 6.692 6.27169 6.80224C5.71746 6.91249 5.14298 6.85591 4.6209 6.63966C4.09883 6.42341 3.65261 6.0572 3.33866 5.58734C3.02471 5.11749 2.85714 4.56509 2.85714 4C2.85714 3.24224 3.15816 2.51551 3.69398 1.97969C4.2298 1.44388 4.95652 1.14286 5.71429 1.14286ZM5.71429 0C4.92316 0 4.1498 0.234596 3.49201 0.674122C2.83421 1.11365 2.32152 1.73836 2.01877 2.46927C1.71602 3.20017 1.6368 4.00444 1.79114 4.78036C1.94549 5.55629 2.32645 6.26902 2.88586 6.82843C3.44527 7.38784 4.158 7.7688 4.93392 7.92314C5.70985 8.07748 6.51412 7.99827 7.24502 7.69552C7.97592 7.39277 8.60064 6.88008 9.04016 6.22228C9.47969 5.56448 9.71429 4.79113 9.71429 4C9.71429 2.93913 9.29286 1.92172 8.54271 1.17157C7.79257 0.421427 6.77515 0 5.71429 0Z" fill="black"/>
</svg>
