<svg width="16" height="16" viewBox="0 0 16 16" fill="none" xmlns="http://www.w3.org/2000/svg">
<path fill-rule="evenodd" clip-rule="evenodd" d="M4.61524 1.83938L4.63908 1.73536C4.68458 1.54207 4.75912 1.25776 4.91298 0.977793C5.06987 0.692622 5.313 0.40355 5.69438 0.213291C6.07447 0.023899 6.55076 -0.0467438 7.13974 0.0312666C7.78983 0.117945 9.09564 0.332907 10.2493 0.919719C11.4095 1.51 12.4965 2.52543 12.4965 4.21653C12.4965 5.09024 12.1584 6.02767 11.8308 6.63875C11.6734 6.93259 11.4867 7.21343 11.2994 7.36468C11.2565 7.39935 11.1954 7.44269 11.1196 7.47303C10.9115 8.15673 10.4974 8.75949 9.9338 9.1989C9.3702 9.6383 8.68464 9.89292 7.97084 9.92792C7.25705 9.96292 6.54986 9.7766 5.94598 9.39445C5.34209 9.01229 4.87097 8.45294 4.59704 7.79287L4.58663 7.7946L4.43278 7.60781L4.76736 7.33218L4.43278 7.60781L4.43235 7.60695L4.43148 7.60608L4.42931 7.60304L4.42195 7.59438C4.38486 7.54822 4.34916 7.50096 4.3149 7.45266C4.22131 7.32286 4.13312 7.18926 4.05053 7.05221C3.84684 6.71503 3.6011 6.23483 3.44378 5.67445C3.28689 5.11408 3.21495 4.45706 3.37964 3.77923C3.54 3.11961 3.91835 2.47039 4.60354 1.89052L4.61524 1.83938ZM5.34334 7.31657C5.5313 7.85712 5.89225 8.3206 6.37029 8.63524C6.84832 8.94988 7.41676 9.09812 7.98758 9.05701C8.55839 9.01589 9.09972 8.78771 9.52772 8.4078C9.95572 8.02789 10.2465 7.51746 10.3551 6.95556L10.404 6.97203C10.4023 6.94751 10.4015 6.92293 10.4014 6.89835C10.4014 6.18109 10.3018 5.68052 10.209 5.36848C10.1909 5.30774 10.1708 5.24761 10.1488 5.18819L10.131 5.18906H10.1137C9.7896 5.19605 9.46562 5.17138 9.14634 5.11538C8.40221 4.9897 7.39458 4.67592 6.20795 3.94912C6.18195 4.0072 6.15594 4.07264 6.12994 4.14545C6.045 4.38598 5.97522 4.67159 5.91498 4.97323C5.86167 5.2389 5.8179 5.5063 5.77629 5.7568L5.76026 5.85561C5.71562 6.12431 5.67098 6.38825 5.61897 6.57938C5.52796 6.91135 5.43521 7.14712 5.34334 7.31614V7.31657ZM4.73659 6.50917C4.54084 6.17316 4.38713 5.81437 4.27893 5.44086C4.14934 4.97886 4.10167 4.47873 4.22215 3.98423C4.33917 3.50316 4.62217 2.9974 5.20422 2.51807C5.3091 2.44699 5.35677 2.35164 5.36977 2.32607V2.32564C5.39253 2.27878 5.41081 2.22988 5.42438 2.17959C5.43825 2.13018 5.45342 2.06257 5.46772 2.0019L5.48289 1.93385C5.52406 1.7592 5.57737 1.56894 5.67271 1.39515C5.76546 1.22699 5.89244 1.08311 6.0814 0.989061C6.27123 0.894149 6.56507 0.82914 7.02533 0.890682C7.65504 0.974326 8.8395 1.17499 9.85624 1.69246C10.866 2.20602 11.6297 2.98353 11.6297 4.21653C11.6297 4.78427 11.439 5.43002 11.2093 5.93926C11.1659 5.60728 11.1035 5.33598 11.0394 5.12101C10.9947 4.96738 10.9389 4.81718 10.8725 4.67159C10.8475 4.61763 10.82 4.56485 10.7902 4.5134L10.7828 4.5017L10.7802 4.49736L10.7789 4.4952L10.7781 4.4939L10.414 4.72793L10.7781 4.4939L10.6177 4.24513L10.3308 4.30277L10.3247 4.30407L10.2827 4.30971C10.2182 4.31689 10.1534 4.32123 10.0885 4.32271C9.82133 4.32787 9.55425 4.30697 9.2911 4.2603C8.59204 4.14242 7.5649 3.82127 6.31717 2.99046L6.01379 2.78807L5.76286 3.05244C5.55613 3.27 5.41571 3.56687 5.313 3.85594C5.20812 4.15282 5.12881 4.48436 5.0651 4.80247C5.01228 5.07318 4.96431 5.34482 4.92121 5.61725L4.90474 5.71433C4.85837 5.99646 4.82067 6.21186 4.78253 6.35141C4.7683 6.40431 4.75298 6.4569 4.73659 6.50917ZM10.7525 6.69206L10.7542 6.69119L10.7525 6.69206ZM10.7542 6.69119L10.7525 6.69206L10.7538 6.69119H10.7542Z" fill="black"/>
<path fill-rule="evenodd" clip-rule="evenodd" d="M5.16342 10.303C5.07154 10.1202 4.95843 9.89436 4.7673 9.93813C2.42526 10.4712 0 12.0102 0 13.6467V16H15.6021V13.6467C15.6021 12.3578 14.0973 11.1291 12.3139 10.4049L12.3118 10.4006C12.3098 10.3966 12.3078 10.3927 12.3057 10.3889L12.2914 10.3958C11.8177 10.2051 11.3245 10.0491 10.8348 9.93813C10.6168 9.88829 10.3914 10.1882 10.293 10.3759H5.20069C5.18856 10.3533 5.17642 10.3282 5.16342 10.303ZM11.0094 10.8751C11.1988 10.9276 11.3874 10.9865 11.5733 11.0515C11.5785 11.1997 11.5672 11.3748 11.5429 11.5534C11.5182 11.7382 11.4788 11.9209 11.4251 12.0995H10.8348C10.7543 12.0995 10.6755 12.1219 10.607 12.1643C10.5386 12.2066 10.4833 12.2671 10.4473 12.3391L10.0139 13.2059C9.9838 13.266 9.96807 13.3324 9.968 13.3996V14.2664C9.968 14.3813 10.0137 14.4916 10.0949 14.5729C10.1762 14.6541 10.2864 14.6998 10.4014 14.6998H11.2682V13.833H10.8348V13.5019L11.1026 12.9662H12.3005L12.5683 13.5019V13.833H12.135V14.6998H13.0017C13.1167 14.6998 13.2269 14.6541 13.3082 14.5729C13.3895 14.4916 13.4351 14.3813 13.4351 14.2664V13.3996C13.4351 13.3324 13.4193 13.266 13.3892 13.2059L12.9558 12.3391C12.9198 12.2671 12.8645 12.2066 12.7961 12.1643C12.7277 12.1219 12.6488 12.0995 12.5683 12.0995H12.323C12.3766 11.8701 12.4125 11.637 12.4305 11.4021C12.8531 11.6019 13.2457 11.8312 13.5859 12.0791C14.4189 12.6867 14.7353 13.2553 14.7353 13.6467V15.1332H0.866782V13.6467C0.866782 13.2553 1.18316 12.6867 2.01614 12.0791C2.43479 11.7735 2.93449 11.497 3.47016 11.2682C3.48504 11.6136 3.54046 11.956 3.63529 12.2884L3.63875 12.3005C3.37966 12.4645 3.18682 12.7147 3.0943 13.007C3.00178 13.2993 3.01553 13.6148 3.13313 13.898C3.25072 14.1811 3.46459 14.4136 3.73696 14.5544C4.00933 14.6951 4.32268 14.7351 4.62167 14.6672C4.92066 14.5994 5.18604 14.428 5.37095 14.1835C5.55586 13.9389 5.6484 13.6369 5.63222 13.3307C5.61605 13.0245 5.4922 12.7339 5.28255 12.5102C5.0729 12.2865 4.79094 12.1441 4.48647 12.1081C4.43109 11.9268 4.3905 11.7413 4.36512 11.5534C4.34099 11.3853 4.33098 11.2156 4.33521 11.0459C4.33647 11.0135 4.33864 10.9811 4.34171 10.9488C4.39372 10.9328 4.44573 10.9172 4.49773 10.9024L4.67759 11.2431H10.8161L11.0094 10.8756V10.8751ZM4.33391 13.8399C4.56708 13.8399 4.7673 13.6493 4.7673 13.4001C4.7673 13.1513 4.56708 12.9602 4.33391 12.9602C4.10075 12.9602 3.90052 13.1509 3.90052 13.4001C3.90052 13.6488 4.10075 13.8399 4.33391 13.8399Z" fill="black"/>
</svg>
