<svg width="16" height="16" viewBox="0 0 16 16" fill="none" xmlns="http://www.w3.org/2000/svg">
<path d="M8 7.2C9.06087 7.2 10.0783 7.62143 10.8284 8.37157C11.5786 9.12172 12 10.1391 12 11.2V16H10.4V11.2C10.4 10.5878 10.1661 9.99879 9.74617 9.55339C9.32621 9.108 8.75191 8.83991 8.1408 8.804L8 8.8C7.38783 8.79997 6.79879 9.03386 6.35339 9.45383C5.90799 9.87379 5.63991 10.4481 5.604 11.0592L5.6 11.2V16H4V11.2C4 10.1391 4.42143 9.12172 5.17157 8.37157C5.92172 7.62143 6.93913 7.2 8 7.2ZM2.8 9.6C3.0232 9.6 3.24 9.6264 3.448 9.6752C3.31122 10.0824 3.23022 10.5063 3.2072 10.9352L3.2 11.2V11.2688C3.10804 11.2359 3.01239 11.2144 2.9152 11.2048L2.8 11.2C2.50169 11.2 2.21409 11.3111 1.99326 11.5117C1.77244 11.7123 1.63424 11.9879 1.6056 12.2848L1.6 12.4V16H0V12.4C0 11.6574 0.294999 10.9452 0.820101 10.4201C1.3452 9.895 2.05739 9.6 2.8 9.6ZM13.2 9.6C13.9426 9.6 14.6548 9.895 15.1799 10.4201C15.705 10.9452 16 11.6574 16 12.4V16H14.4V12.4C14.4 12.1017 14.2889 11.8141 14.0883 11.5933C13.8877 11.3724 13.6121 11.2342 13.3152 11.2056L13.2 11.2C13.06 11.2 12.9256 11.224 12.8 11.268V11.2C12.8 10.6672 12.7136 10.1552 12.5528 9.6768C12.7647 9.6255 12.982 9.59972 13.2 9.6ZM2.8 4.8C3.33043 4.8 3.83914 5.01071 4.21421 5.38579C4.58929 5.76086 4.8 6.26957 4.8 6.8C4.8 7.33043 4.58929 7.83914 4.21421 8.21421C3.83914 8.58929 3.33043 8.8 2.8 8.8C2.26957 8.8 1.76086 8.58929 1.38579 8.21421C1.01071 7.83914 0.8 7.33043 0.8 6.8C0.8 6.26957 1.01071 5.76086 1.38579 5.38579C1.76086 5.01071 2.26957 4.8 2.8 4.8ZM13.2 4.8C13.7304 4.8 14.2391 5.01071 14.6142 5.38579C14.9893 5.76086 15.2 6.26957 15.2 6.8C15.2 7.33043 14.9893 7.83914 14.6142 8.21421C14.2391 8.58929 13.7304 8.8 13.2 8.8C12.6696 8.8 12.1609 8.58929 11.7858 8.21421C11.4107 7.83914 11.2 7.33043 11.2 6.8C11.2 6.26957 11.4107 5.76086 11.7858 5.38579C12.1609 5.01071 12.6696 4.8 13.2 4.8ZM2.8 6.4C2.69391 6.4 2.59217 6.44214 2.51716 6.51716C2.44214 6.59217 2.4 6.69391 2.4 6.8C2.4 6.90609 2.44214 7.00783 2.51716 7.08284C2.59217 7.15786 2.69391 7.2 2.8 7.2C2.90609 7.2 3.00783 7.15786 3.08284 7.08284C3.15786 7.00783 3.2 6.90609 3.2 6.8C3.2 6.69391 3.15786 6.59217 3.08284 6.51716C3.00783 6.44214 2.90609 6.4 2.8 6.4ZM13.2 6.4C13.0939 6.4 12.9922 6.44214 12.9172 6.51716C12.8421 6.59217 12.8 6.69391 12.8 6.8C12.8 6.90609 12.8421 7.00783 12.9172 7.08284C12.9922 7.15786 13.0939 7.2 13.2 7.2C13.3061 7.2 13.4078 7.15786 13.4828 7.08284C13.5579 7.00783 13.6 6.90609 13.6 6.8C13.6 6.69391 13.5579 6.59217 13.4828 6.51716C13.4078 6.44214 13.3061 6.4 13.2 6.4ZM8 0C8.84869 0 9.66263 0.337142 10.2627 0.937258C10.8629 1.53737 11.2 2.35131 11.2 3.2C11.2 4.04869 10.8629 4.86263 10.2627 5.46274C9.66263 6.06286 8.84869 6.4 8 6.4C7.15131 6.4 6.33737 6.06286 5.73726 5.46274C5.13714 4.86263 4.8 4.04869 4.8 3.2C4.8 2.35131 5.13714 1.53737 5.73726 0.937258C6.33737 0.337142 7.15131 0 8 0ZM8 1.6C7.57565 1.6 7.16869 1.76857 6.86863 2.06863C6.56857 2.36869 6.4 2.77565 6.4 3.2C6.4 3.62435 6.56857 4.03131 6.86863 4.33137C7.16869 4.63143 7.57565 4.8 8 4.8C8.42435 4.8 8.83131 4.63143 9.13137 4.33137C9.43143 4.03131 9.6 3.62435 9.6 3.2C9.6 2.77565 9.43143 2.36869 9.13137 2.06863C8.83131 1.76857 8.42435 1.6 8 1.6Z" fill="black"/>
</svg>
