<svg width="13" height="18" viewBox="0 0 13 18" fill="none" xmlns="http://www.w3.org/2000/svg">
<path fill-rule="evenodd" clip-rule="evenodd" d="M1.35 2.24998C1.23065 2.24998 1.11619 2.29739 1.0318 2.38178C0.947411 2.46617 0.9 2.58063 0.9 2.69998V16.65C0.9 16.7693 0.947411 16.8838 1.0318 16.9682C1.11619 17.0526 1.23065 17.1 1.35 17.1H11.25C11.3693 17.1 11.4838 17.0526 11.5682 16.9682C11.6526 16.8838 11.7 16.7693 11.7 16.65V2.69998C11.7 2.58063 11.6526 2.46617 11.5682 2.38178C11.4838 2.29739 11.3693 2.24998 11.25 2.24998H8.73765V1.34998H11.25C11.608 1.34998 11.9514 1.49221 12.2046 1.74538C12.4578 1.99856 12.6 2.34193 12.6 2.69998V16.65C12.6 17.008 12.4578 17.3514 12.2046 17.6046C11.9514 17.8577 11.608 18 11.25 18H1.35C0.991958 18 0.64858 17.8577 0.395406 17.6046C0.142232 17.3514 0 17.008 0 16.65V2.69998C0 2.34193 0.142232 1.99856 0.395406 1.74538C0.64858 1.49221 0.991958 1.34998 1.35 1.34998H3.86235V2.24998H1.35Z" fill="black"/>
<path fill-rule="evenodd" clip-rule="evenodd" d="M3.15 1.35C3.15 0.991958 3.29223 0.64858 3.54541 0.395406C3.79858 0.142232 4.14196 0 4.5 0H8.1C8.45804 0 8.80142 0.142232 9.05459 0.395406C9.30777 0.64858 9.45 0.991958 9.45 1.35V2.25C9.45 2.60804 9.30777 2.95142 9.05459 3.20459C8.80142 3.45777 8.45804 3.6 8.1 3.6H4.5C4.14196 3.6 3.79858 3.45777 3.54541 3.20459C3.29223 2.95142 3.15 2.60804 3.15 2.25V1.35ZM4.5 0.9C4.38065 0.9 4.26619 0.947411 4.1818 1.0318C4.09741 1.11619 4.05 1.23065 4.05 1.35V2.25C4.05 2.36935 4.09741 2.48381 4.1818 2.5682C4.26619 2.65259 4.38065 2.7 4.5 2.7H8.1C8.21935 2.7 8.33381 2.65259 8.4182 2.5682C8.50259 2.48381 8.55 2.36935 8.55 2.25V1.35C8.55 1.23065 8.50259 1.11619 8.4182 1.0318C8.33381 0.947411 8.21935 0.9 8.1 0.9H4.5ZM2.25 7.65C2.25 7.53065 2.29741 7.41619 2.3818 7.3318C2.46619 7.24741 2.58065 7.2 2.7 7.2H5.85C5.96935 7.2 6.08381 7.24741 6.1682 7.3318C6.25259 7.41619 6.3 7.53065 6.3 7.65C6.3 7.76935 6.25259 7.88381 6.1682 7.9682C6.08381 8.05259 5.96935 8.1 5.85 8.1H2.7C2.58065 8.1 2.46619 8.05259 2.3818 7.9682C2.29741 7.88381 2.25 7.76935 2.25 7.65ZM2.25 5.4C2.25 5.28065 2.29741 5.16619 2.3818 5.0818C2.46619 4.99741 2.58065 4.95 2.7 4.95H9.675C9.79435 4.95 9.90881 4.99741 9.9932 5.0818C10.0776 5.16619 10.125 5.28065 10.125 5.4C10.125 5.51935 10.0776 5.63381 9.9932 5.7182C9.90881 5.80259 9.79435 5.85 9.675 5.85H2.7C2.58065 5.85 2.46619 5.80259 2.3818 5.7182C2.29741 5.63381 2.25 5.51935 2.25 5.4ZM3.15 11.25V12.15H4.05V11.25H3.15ZM2.7 10.35C2.58065 10.35 2.46619 10.3974 2.3818 10.4818C2.29741 10.5662 2.25 10.6807 2.25 10.8V12.6C2.25 12.7193 2.29741 12.8338 2.3818 12.9182C2.46619 13.0026 2.58065 13.05 2.7 13.05H4.5C4.61935 13.05 4.73381 13.0026 4.8182 12.9182C4.90259 12.8338 4.95 12.7193 4.95 12.6V10.8C4.95 10.6807 4.90259 10.5662 4.8182 10.4818C4.73381 10.3974 4.61935 10.35 4.5 10.35H2.7ZM8.1 11.25C8.16073 11.2528 8.22138 11.2432 8.27831 11.2219C8.33525 11.2006 8.38727 11.168 8.43124 11.126C8.47522 11.084 8.51024 11.0336 8.53418 10.9777C8.55813 10.9219 8.5705 10.8617 8.57056 10.8009C8.57063 10.7401 8.55837 10.68 8.53454 10.624C8.5107 10.5681 8.47579 10.5176 8.4319 10.4755C8.388 10.4335 8.33605 10.4008 8.27916 10.3793C8.22227 10.3579 8.16163 10.3482 8.1009 10.3509C7.98515 10.356 7.87581 10.4055 7.79564 10.4891C7.71548 10.5728 7.67068 10.6842 7.67057 10.8C7.67045 10.9159 7.71503 11.0273 7.79502 11.1111C7.87501 11.195 7.98426 11.2447 8.1 11.25ZM8.1 12.15C8.45804 12.15 8.80142 12.0078 9.05459 11.7546C9.30777 11.5014 9.45 11.158 9.45 10.8C9.45 10.442 9.30777 10.0986 9.05459 9.84541C8.80142 9.59223 8.45804 9.45 8.1 9.45C7.74196 9.45 7.39858 9.59223 7.14541 9.84541C6.89223 10.0986 6.75 10.442 6.75 10.8C6.75 11.158 6.89223 11.5014 7.14541 11.7546C7.39858 12.0078 7.74196 12.15 8.1 12.15ZM6.3 14.076C6.30786 14.0668 6.31612 14.0579 6.32475 14.0494C6.39855 13.9775 6.54075 13.882 6.76395 13.7871C7.21395 13.5958 7.76925 13.5 8.1 13.5C8.43075 13.5 8.98605 13.5958 9.43605 13.7871C9.65925 13.8816 9.80145 13.9775 9.87525 14.0494C9.88387 14.0578 9.89213 14.0665 9.9 14.0755V14.85H6.3V14.076ZM8.1 12.6C7.19865 12.6 5.4 13.0797 5.4 14.0319V15.75H10.8V14.0319C10.8 13.0797 9.00135 12.6 8.1 12.6Z" fill="black"/>
</svg>
