<svg width="16" height="16" viewBox="0 0 16 16" fill="none" xmlns="http://www.w3.org/2000/svg">
<path d="M7.57895 0C6.74618 0 5.93212 0.246943 5.2397 0.709602C4.54729 1.17226 4.00761 1.82985 3.68893 2.59923C3.37024 3.3686 3.28686 4.2152 3.44933 5.03196C3.61179 5.84872 4.0128 6.59897 4.60166 7.18782C5.19051 7.77667 5.94075 8.17768 6.75751 8.34015C7.57428 8.50261 8.42087 8.41923 9.19025 8.10055C9.95962 7.78186 10.6172 7.24219 11.0799 6.54977C11.5425 5.85735 11.7895 5.04329 11.7895 4.21053C11.7895 3.09383 11.3459 2.02286 10.5562 1.23323C9.76661 0.443608 8.69565 0 7.57895 0ZM7.57895 6.73684C7.07929 6.73684 6.59085 6.58868 6.1754 6.31108C5.75995 6.03349 5.43615 5.63893 5.24494 5.17731C5.05372 4.71568 5.0037 4.20772 5.10117 3.71767C5.19865 3.22761 5.43926 2.77746 5.79257 2.42415C6.14588 2.07084 6.59603 1.83023 7.08609 1.73275C7.57615 1.63527 8.0841 1.6853 8.54573 1.87652C9.00735 2.06773 9.40191 2.39153 9.6795 2.80698C9.9571 3.22243 10.1053 3.71087 10.1053 4.21053C10.1053 4.88055 9.8391 5.52313 9.36532 5.9969C8.89155 6.47068 8.24897 6.73684 7.57895 6.73684ZM15.1579 16V15.1579C15.1579 13.5945 14.5368 12.0952 13.4314 10.9897C12.3259 9.88421 10.8265 9.26316 9.26316 9.26316H5.89474C4.33136 9.26316 2.83201 9.88421 1.72653 10.9897C0.621051 12.0952 0 13.5945 0 15.1579V16H1.68421V15.1579C1.68421 14.0412 2.12782 12.9702 2.91745 12.1806C3.70707 11.391 4.77804 10.9474 5.89474 10.9474H9.26316C10.3799 10.9474 11.4508 11.391 12.2404 12.1806C13.0301 12.9702 13.4737 14.0412 13.4737 15.1579V16H15.1579Z" fill="black"/>
</svg>
