<svg width="13" height="16" viewBox="0 0 13 16" fill="none" xmlns="http://www.w3.org/2000/svg">
<path d="M11.0011 1.36003e-08C11.4572 -5.60231e-05 11.8964 0.173054 12.2298 0.484344C12.5632 0.795634 12.7661 1.22189 12.7973 1.67697L12.8013 1.80018V14.1998C12.8013 14.656 12.6282 15.0951 12.3169 15.4285C12.0056 15.762 11.5794 15.9648 11.1243 15.996L11.0011 16H1.80018C1.34403 16.0001 0.904874 15.8269 0.571455 15.5157C0.238035 15.2044 0.0352212 14.7781 0.00400051 14.323L1.36003e-08 14.1998V1.80018C-5.60231e-05 1.34403 0.173054 0.904874 0.484344 0.571454C0.795634 0.238035 1.22189 0.0352212 1.67697 0.00400051L1.80018 1.36003e-08H11.0011ZM11.0011 1.20012H1.80018C1.65518 1.20013 1.51508 1.25264 1.4058 1.34795C1.29651 1.44326 1.22544 1.57491 1.20572 1.71857L1.20012 1.80018V14.1998C1.20012 14.5039 1.42574 14.7551 1.71857 14.7943L1.80018 14.7999H11.0011C11.1461 14.7999 11.2862 14.7474 11.3955 14.6521C11.5048 14.5567 11.5758 14.4251 11.5956 14.2814L11.6012 14.1998V1.80018C11.6012 1.65518 11.5486 1.51508 11.4533 1.4058C11.358 1.29651 11.2264 1.22544 11.0827 1.20572L11.0011 1.20012ZM2.40024 11.0003C2.40024 10.8412 2.46346 10.6885 2.57599 10.576C2.68853 10.4635 2.84115 10.4002 3.0003 10.4002H9.80098C9.96013 10.4002 10.1128 10.4635 10.2253 10.576C10.3378 10.6885 10.401 10.8412 10.401 11.0003C10.401 11.1594 10.3378 11.3121 10.2253 11.4246C10.1128 11.5371 9.96013 11.6004 9.80098 11.6004H3.0003C2.84115 11.6004 2.68853 11.5371 2.57599 11.4246C2.46346 11.3121 2.40024 11.1594 2.40024 11.0003ZM2.40024 4.59966C2.40024 4.44051 2.46346 4.28789 2.57599 4.17535C2.68853 4.06282 2.84115 3.9996 3.0003 3.9996H9.80098C9.96013 3.9996 10.1128 4.06282 10.2253 4.17535C10.3378 4.28789 10.401 4.44051 10.401 4.59966C10.401 4.75881 10.3378 4.91143 10.2253 5.02397C10.1128 5.1365 9.96013 5.19972 9.80098 5.19972H3.0003C2.84115 5.19972 2.68853 5.1365 2.57599 5.02397C2.46346 4.91143 2.40024 4.75881 2.40024 4.59966ZM2.40024 7.79998C2.40024 7.64083 2.46346 7.48821 2.57599 7.37567C2.68853 7.26314 2.84115 7.19992 3.0003 7.19992H9.80098C9.96013 7.19992 10.1128 7.26314 10.2253 7.37567C10.3378 7.48821 10.401 7.64083 10.401 7.79998C10.401 7.95913 10.3378 8.11175 10.2253 8.22429C10.1128 8.33682 9.96013 8.40004 9.80098 8.40004H3.0003C2.84115 8.40004 2.68853 8.33682 2.57599 8.22429C2.46346 8.11175 2.40024 7.95913 2.40024 7.79998Z" fill="black"/>
</svg>
