<svg width="16" height="17" viewBox="0 0 16 17" fill="none" xmlns="http://www.w3.org/2000/svg">
<path d="M6.07359 1.06228C6.20058 0.748422 6.4184 0.479634 6.69914 0.290372C6.97988 0.101111 7.31075 0 7.64932 0C7.9879 0 8.31877 0.101111 8.59951 0.290372C8.88025 0.479634 9.09807 0.748422 9.22506 1.06228C10.4819 1.40793 11.5905 2.15659 12.3806 3.19329C13.1707 4.23 13.5986 5.49741 13.5987 6.80088V10.7929L15.1557 13.1285C15.2411 13.2565 15.2902 13.4052 15.2976 13.5589C15.3051 13.7126 15.2707 13.8655 15.1981 14.0011C15.1255 14.1368 15.0175 14.2502 14.8855 14.3293C14.7535 14.4083 14.6025 14.4501 14.4486 14.4501H10.5943C10.4919 15.1581 10.1379 15.8056 9.59706 16.2739C9.05622 16.7422 8.36474 17 7.64932 17C6.9339 17 6.24243 16.7422 5.70158 16.2739C5.16073 15.8056 4.80672 15.1581 4.70438 14.4501H0.850038C0.696168 14.4501 0.545178 14.4083 0.413176 14.3293C0.281175 14.2502 0.173114 14.1368 0.100524 14.0011C0.0279332 13.8655 -0.00646421 13.7126 0.00100107 13.5589C0.00846634 13.4052 0.0575143 13.2565 0.142912 13.1285L1.69995 10.7929V6.80088C1.69995 4.06077 3.55275 1.75241 6.07359 1.06228ZM6.44755 14.4501C6.53533 14.6988 6.69809 14.9142 6.91341 15.0665C7.12872 15.2189 7.38599 15.3007 7.64975 15.3007C7.91351 15.3007 8.17078 15.2189 8.38609 15.0665C8.60141 14.9142 8.76417 14.6988 8.85195 14.4501H6.4467H6.44755ZM7.64932 2.55133C6.52227 2.55133 5.44138 2.99905 4.64444 3.79599C3.84749 4.59294 3.39977 5.67383 3.39977 6.80088V11.0504C3.39981 11.2183 3.35012 11.3825 3.25698 11.5221L2.43852 12.7503H12.8593L12.0408 11.5221C11.948 11.3824 11.8986 11.2182 11.8989 11.0504V6.80088C11.8989 5.67383 11.4512 4.59294 10.6542 3.79599C9.85727 2.99905 8.77637 2.55133 7.64932 2.55133Z" fill="black"/>
</svg>
